<?xml version="1.0" encoding="utf-8"?>
<!-- Generator: Adobe Illustrator 21.0.0, SVG Export Plug-In . SVG Version: 6.00 Build 0)  -->
<svg version="1.1" id="Layer_1" xmlns="http://www.w3.org/2000/svg" xmlns:xlink="http://www.w3.org/1999/xlink" x="0px" y="0px"
	 viewBox="0 0 65 65" style="enable-background:new 0 0 65 65;" xml:space="preserve">
<style type="text/css">
	.st0{fill:#FAAA4E;}
</style>
<g id="Layer_1_1_">
	<path class="st0" d="M56.1,13.5c-1.7,0.8-3.6,1.3-5.6,1.5c2-1.2,3.5-3.1,4.3-5.4c-1.9,1.1-3.9,1.9-6.2,2.4c-1.7-1.8-4.2-3-7-3
		c-5.4,0-9.7,4.3-9.7,9.7c0,0.8,0.1,1.5,0.3,2.2c-8.1-0.4-15.2-4.3-20-10.1c-0.8,1.4-1.3,3.1-1.3,4.9c0,3.4,1.7,6.3,4.3,8.1
		c-1.6-0.1-3.1-0.5-4.4-1.2v0.1c0,4.7,3.3,8.6,7.8,9.5c-0.8,0.2-1.7,0.3-2.6,0.3c-0.6,0-1.2-0.1-1.8-0.2c1.2,3.9,4.8,6.7,9.1,6.7
		c-3.3,2.6-7.5,4.1-12,4.1c-0.8,0-1.6,0-2.3-0.1c4.3,2.7,9.4,4.4,14.9,4.4c17.8,0,27.6-14.8,27.6-27.6c0-0.4,0-0.8,0-1.3
		C53.2,17.2,54.8,15.5,56.1,13.5z"/>
</g>
<g id="behance">
</g>
</svg>
