<?xml version="1.0" encoding="utf-8"?>
<!-- Generator: Adobe Illustrator 21.0.0, SVG Export Plug-In . SVG Version: 6.00 Build 0)  -->
<svg version="1.1" id="Layer_1" xmlns="http://www.w3.org/2000/svg" xmlns:xlink="http://www.w3.org/1999/xlink" x="0px" y="0px"
	 viewBox="0 0 366 441" style="enable-background:new 0 0 366 441;" xml:space="preserve">
<style type="text/css">
	.st0{fill:#FFFFFF;}
</style>
<g>
	<path class="st0" d="M363,326.8l-18,7c-19.4,7.3-38.9,14.6-58.4,21.7c-18.8,6.9-32.2,14.9-49,26.6c-10.6,7.4-21.7,16.6-29,26.3
		c-5.7,7.5-11.2,15.3-17.9,21.8c-3.1,3-8.9,4-13.6,4.2c-4,0.1-6.1-2.6-6.5-7.9c-2-27.1-5.3-54.2-7.4-81.3c-1.8-22.6-2.7-45.3-4-67.9
		c-0.1-1.4-0.2-2.9-0.3-4.5c-0.2-2.7-3-4.4-5.6-3.5c-7.4,2.8-14.3,5.4-21.1,8.1c-17.1,6.8-34.2,13.5-51.1,20.9
		c-3.8,1.7-8.2,5.1-9.5,8.8C57.9,345.7,44.5,384.5,31,423.3c-0.9,2.5-0.7,5.7-2.2,7.6c-2.6,3.4-5.7,7.2-9.4,8.9
		c-7.2,3.2-11.3-0.2-9.4-7.7c2.8-11.7,5.9-23.3,9.7-34.6c8.4-24.8,17.3-49.3,26-74c0,0,0,0,0-0.1c1.2-3.4-2.4-6.5-5.7-5
		c-7.2,3.4-13.8,6.5-20.2,9.8c-7.3,3.7-12.9,1.3-17.5-4.5c-3.5-4.5-3.3-7.9,2.5-10.7c14.7-7.1,29.3-14.6,44-21.7
		c6.1-2.9,10.9-7.9,13.6-14.1c14.8-34.3,29.8-68.5,45.2-102.5c10-22.1,18.6-39.8,29.9-61.2c2.2-4.1,11.4-8.2,16.3-9.2
		c5.9-1.2,8.8,14.2,10.5,27c6.7,49.2,5.9,46.9,10.9,84.6c0.3,4.7,1.3,10,2.1,15.7c0.3,2.6,3,4.3,5.5,3.3c6.9-2.6,13.2-4.9,19.2-7.9
		c1.8-0.9,3.2-1.2,3-7.3c-3.8-38.7-8-77.4-11.8-116.2c-0.3-2.9,0.1-9.1,2.4-10.5c3.4-6.2,69.9-39.1,107.4-53c6.8-2.5,12,0.1,14.5,7
		c3.2,8.7-1.6,10.3-8.4,13.2c-25.5,10.9-47.7,20.2-73.3,31c-21.6,9.1-22,14.8-19.6,37.7c2.8,26.3,5.3,52.6,7.9,78.8
		c0.2,1.6,0.4,2.9,0.5,3.8c0.4,2.6,3.1,4.2,5.6,3.2c19.4-7.5,37.7-14.8,56.1-21.6c12.5-4.7,25.1-9.1,37.9-12.7
		c4.1-1.1,10.7-1,13.2,1.5c8.6,8.6,6.7,13.3-5.8,19.4c-14.1,6.8-29.5,10.8-44.3,16c-18.6,6.5-37.2,12.9-55.6,19.9
		c-2.2,0.8-4.3,5.4-4.1,8.1c1.5,21,3.5,42,5.3,63c0.9,10.6,1.7,21.3,2.7,31.9c0.2,2.6,0.6,5.3,1,8.2c0.4,2.7,3.3,4.3,5.8,3.2
		c2.3-1.1,4.4-2,6.5-2.9c22.9-9.3,45.8-18.6,68.8-27.7c6.7-2.7,13.1-4.5,20.4-7.1c6.9-2.4,13.2-2.7,19.9,0.8
		c5,2.6,10.9,8.8,6.2,11.6L363,326.8z M145.4,138.7c-42.7,88.8-39.8,91.7-61.9,135.6c4.3-1.1,5.5-1.6,6.7-2.1
		c19.8-7.8,39.6-15.2,59.5-22.9c6.1-2.4,7-5.1,6.5-11.8L145.4,138.7z M189.4,394.7c10.2-11.8,18.9-21.4,27-31.5
		c1.6-1.9,0.7-6.5,0.5-9.3c-2.5-28.9-4.2-46.9-6.8-75.7c-0.8-8.2-1.6-16.4-2.6-25.7c-0.3-2.7-3.1-4.4-5.6-3.4
		c-4.8,1.9-7.9,3-16.1,6.3c-6,2.4-7.5,5.1-7.1,11.2L189.4,394.7z"/>
	<path class="st0" d="M160.2,92.3c-0.5-1.2-1.6-2.6-1.3-3.6c0.3-1.1,1.8-2.3,3-2.5c8.2-1.5,16.5-2.9,24.8-4.1c1.2-0.2,3,0.5,3.6,1.4
		c0.6,0.8,0,2.5,0,3.9c0.4,0.9,1.4,2.2,1.3,3.5c-0.1,1.9-2,2.2-3.6,2.4c-7.9,1.3-15.8,2.6-23.6,3.9c-1.6,0.3-3.5,0.7-4.2-1.1
		C159.7,95,160.2,93.4,160.2,92.3z"/>
	<path class="st0" d="M161.7,0c2.4,15.6,4.9,31.1,7.4,46.7c0,0.2,0.2,0.3,0.3,0.5c3.5,0.4,6.2,3.6,5.4,7.3c-0.5,2.3-2.3,4.2-4.6,4.7
		c-4.1,0.9-7.6-2.2-7.6-6c0-2.4,1.5-4.5,3.5-5.5c0.1-0.4,0.2-0.8,0.2-1.1c-2.3-15-4.6-30-7-44.9c-0.1-0.4-0.2-0.9-0.5-1.7
		c-1.1,5.1-2,9.9-3.1,14.5c-3,12.1-6,24.2-12.3,35c-2.4,4.1-1.5,9.3,1.9,12.6C151.7,68,157.8,74,161.8,82c7.5-1.2,15.1-2.4,22.5-3.5
		c1.3-8.9,5.3-16.5,9.5-24c2.3-4.2,1.4-9.4-2.1-12.6C178.8,30.1,170.7,14.8,161.7,0z"/>
</g>
</svg>
